<?xml version="1.0" encoding="iso-8859-1"?>
<!-- Uploaded to: SVG Repo, www.svgrepo.com, Generator: SVG Repo Mixer Tools -->
<!DOCTYPE svg PUBLIC "-//W3C//DTD SVG 1.1//EN" "http://www.w3.org/Graphics/SVG/1.1/DTD/svg11.dtd">
<svg fill="#000000" height="200px" width="200px" version="1.1" id="Capa_1" xmlns="http://www.w3.org/2000/svg" xmlns:xlink="http://www.w3.org/1999/xlink" 
	 viewBox="0 0 425.521 425.521" xml:space="preserve">
<g>
	<path d="M317.233,94.552l4.794-9.228c0.273-0.06,0.549-0.106,0.818-0.191c2.402-0.76,4.404-2.442,5.565-4.678l16.597-31.944
		c2.419-4.656,0.606-10.391-4.05-12.81l-31.86-16.553c-2.235-1.162-4.842-1.387-7.244-0.628c-2.402,0.76-4.404,2.442-5.565,4.678
		l-16.597,31.944c-1.353,2.604-1.38,5.544-0.329,8.054l-4.744,9.131c-10.808-3.918-22.088-6.841-33.732-8.655v-8.673h8.623
		c5.247,0,9.5-4.253,9.5-9.5V9.5c0-5.247-4.253-9.5-9.5-9.5h-73.497c-5.247,0-9.5,4.253-9.5,9.5v35.999c0,5.247,4.253,9.5,9.5,9.5
		h8.624v8.673C97.581,77.233,30.749,152.711,30.749,243.509c0,100.362,81.65,182.012,182.012,182.012s182.012-81.65,182.012-182.012
		C394.773,181.993,364.091,127.514,317.233,94.552z M308.767,40.387l15.001,7.793l-7.837,15.084l-15.001-7.793L308.767,40.387z
		 M295.206,73.909l8.929,4.639l-3.048,5.867c-2.926-1.631-5.897-3.188-8.919-4.66L295.206,73.909z M185.512,19h54.497v16.999
		h-54.497V19z M203.636,54.999h18.25v6.727c-3.023-0.15-6.065-0.229-9.125-0.229c-3.06,0-6.101,0.079-9.125,0.229V54.999z
		 M212.76,406.521c-89.885,0-163.012-73.127-163.012-163.012S122.876,80.497,212.76,80.497c89.885,0,163.012,73.127,163.012,163.012
		S302.646,406.521,212.76,406.521z"/>
	<path d="M212.76,98.783c-79.802,0-144.726,64.924-144.726,144.727s64.924,144.727,144.726,144.727
		c79.803,0,144.727-64.924,144.727-144.727S292.564,98.783,212.76,98.783z M212.76,369.236
		c-69.326,0-125.726-56.401-125.726-125.727s56.4-125.727,125.726-125.727s125.727,56.401,125.727,125.727
		S282.086,369.236,212.76,369.236z"/>
	<path d="M235.385,155.2v-16.706c0-5.247-4.253-9.5-9.5-9.5s-9.5,4.253-9.5,9.5v14.922h-7.249v-14.922c0-5.247-4.253-9.5-9.5-9.5
		s-9.5,4.253-9.5,9.5V155.2c-15.731,4.954-27.172,19.677-27.172,37.023v21.98c0,17.346,11.441,32.068,27.172,37.023v59.565
		c-4.942-3.605-8.172-9.423-8.172-15.994c0-5.247-4.253-9.5-9.5-9.5s-9.5,4.253-9.5,9.5c0,17.346,11.441,32.068,27.172,37.023
		v16.706c0,5.247,4.253,9.5,9.5,9.5s9.5-4.253,9.5-9.5v-14.922h7.249v14.922c0,5.247,4.253,9.5,9.5,9.5s9.5-4.253,9.5-9.5v-16.706
		c15.732-4.954,27.173-19.677,27.173-37.023v-21.98c0-17.346-11.441-32.069-27.173-37.023v-59.565
		c4.942,3.605,8.173,9.423,8.173,15.995v12.211c0,5.247,4.253,9.5,9.5,9.5s9.5-4.253,9.5-9.5v-12.211
		C262.558,174.876,251.117,160.154,235.385,155.2z M216.385,172.416v61.593h-7.249v-61.593H216.385z M181.964,214.203v-21.98
		c0-6.572,3.23-12.389,8.172-15.994v53.969C185.194,226.592,181.964,220.774,181.964,214.203z M209.136,314.603v-61.593h7.249
		v61.593H209.136z M243.558,272.816v21.98c0,6.572-3.23,12.39-8.173,15.995v-53.97C240.327,260.426,243.558,266.244,243.558,272.816
		z"/>
</g>
</svg>